<?xml version="1.0" standalone="no"?>
<!DOCTYPE svg PUBLIC "-//W3C//DTD SVG 20010904//EN"
 "http://www.w3.org/TR/2001/REC-SVG-20010904/DTD/svg10.dtd">
<svg version="1.0" xmlns="http://www.w3.org/2000/svg"
 width="543.000000pt" height="543.000000pt" viewBox="0 0 543.000000 543.000000"
 preserveAspectRatio="xMidYMid meet">
<metadata>
Created by potrace 1.14, written by Peter Selinger 2001-2017
</metadata>
<g transform="translate(0.000000,543.000000) scale(0.100000,-0.100000)"
fill="#000000" stroke="none">
<path d="M2492 5013 c-98 -15 -212 -53 -291 -96 -207 -112 -394 -349 -451
-572 -20 -79 -24 -103 -35 -200 -4 -27 -8 -63 -10 -80 -15 -100 -20 -457 -20
-1365 0 -1183 4 -1303 47 -1480 75 -311 251 -556 488 -679 110 -57 169 -72
301 -77 120 -4 177 6 265 46 43 20 134 85 146 105 26 43 112 65 173 45 43 -14
65 -52 65 -114 0 -36 5 -48 26 -65 25 -20 39 -21 245 -21 145 0 227 4 244 12
53 24 52 7 52 1241 0 1257 5 1168 -62 1185 -16 5 -230 8 -475 7 -413 -1 -447
-2 -472 -19 -16 -10 -28 -26 -29 -35 0 -9 -1 -142 -2 -295 0 -279 0 -279 22
-298 13 -10 35 -18 50 -19 41 -1 60 -6 86 -23 l23 -15 -3 -363 c-2 -200 -6
-379 -9 -398 -3 -19 -8 -55 -11 -80 -13 -93 -59 -148 -131 -156 -51 -6 -83 12
-111 60 -45 82 -47 132 -47 1451 0 1325 3 1435 39 1505 23 45 52 63 99 63 75
0 116 -41 131 -128 3 -22 9 -206 12 -410 6 -410 3 -395 72 -416 23 -6 165 -9
398 -7 350 3 362 4 390 24 l28 21 -1 199 c0 244 -9 370 -39 599 -37 277 -166
500 -390 675 -98 76 -262 144 -410 170 -99 17 -305 19 -403 3z m169 -214 c14
-10 32 -32 39 -49 26 -62 -31 -103 -189 -136 -103 -21 -243 -98 -308 -167 -24
-25 -43 -49 -43 -52 0 -17 -68 -99 -92 -111 -44 -23 -49 -19 -42 34 14 107 90
240 191 332 65 59 237 155 300 166 15 3 30 7 32 10 10 10 86 -9 112 -27z"/>
</g>
</svg>
